<svg width="48" height="32" viewBox="0 0 48 32" fill="none" xmlns="http://www.w3.org/2000/svg">
<path d="M1.2622 29.727C1.40283 29.5499 1.7497 29.2613 2.0122 29.5238C2.30206 29.8137 1.45795 30.6034 1.13865 30.9022C1.0965 30.9416 1.06349 30.9725 1.04345 30.9925C0.871576 31.1644 0.418451 31.4925 0.0590762 30.9925C-0.281523 30.5187 0.949797 26.8588 1.22571 26.0388C1.24092 25.9936 1.25322 25.957 1.2622 25.93C1.43408 25.4144 3.12109 20.7269 4.80859 17.1175C6.49609 13.5082 9.04297 8.97692 11.6055 5.28942C14.168 1.60192 15.3711 0.789422 15.8086 0.570672C16.2461 0.351922 17.1055 0.633172 16.9648 1.5238C16.8242 2.41442 16.4805 4.1488 15.1992 7.44568C13.918 10.7426 11.8867 16.0238 11.793 16.4301C12.0534 16.1123 12.7961 15.5363 13.6836 15.7738C14.6917 16.0436 14.5515 17.7327 14.4706 18.7071C14.4625 18.805 14.4549 18.8956 14.4492 18.9769C14.4156 19.4562 14.2145 20.4741 14.0384 21.3656C13.8872 22.1306 13.7545 22.8026 13.7617 22.9613C13.9805 22.5551 14.543 21.7863 15.043 21.9613C15.5976 22.1554 15.6108 22.6325 15.6177 22.8794C15.6186 22.9108 15.6193 22.9384 15.6211 22.9613C15.6238 22.9963 15.6269 23.1124 15.6316 23.2837C15.654 24.1072 15.711 26.2069 15.918 26.7113C16.168 27.3207 16.4336 27.6801 17.043 27.3207C17.6523 26.9613 19.0898 25.4301 19.3555 25.0863C19.6211 24.7426 20.1211 24.0863 20.3086 23.5238C20.4961 22.9613 20.7148 22.5863 21.1211 22.7269C21.5273 22.8676 21.668 23.1488 21.6367 23.8363C21.6324 23.9324 21.6265 24.023 21.621 24.1075C21.5871 24.6279 21.5682 24.9191 22.0117 24.8519C22.2935 24.8092 22.678 24.7152 23.0325 24.6285C23.3267 24.5565 23.6002 24.4896 23.7773 24.4613L23.8016 24.4574C24.1901 24.3951 24.712 24.3115 24.5742 24.6176C24.499 24.7846 24.1872 24.8713 23.7868 24.9826C23.4381 25.0795 23.0222 25.1952 22.6367 25.3988C21.8086 25.8363 21.1211 25.9457 20.7148 25.0082C20.1888 25.7165 18.893 27.3332 17.918 28.1332C16.6992 29.1332 15.668 28.7269 15.1992 27.8988C14.7305 27.0707 14.6836 25.8676 14.7461 25.2426C14.7961 24.7426 14.7669 23.7009 14.7461 23.2426C14.5638 23.5186 14.168 24.1644 14.043 24.5394C13.8867 25.0082 12.9023 25.6957 12.6055 24.8519C12.3221 24.0465 12.779 22.5435 12.9027 22.1368C12.9086 22.1174 12.9137 22.1005 12.918 22.0863C13.0117 21.7738 13.6836 18.8051 13.6836 17.7269C13.6836 16.6488 13.3867 16.4457 12.6836 17.0082C11.9805 17.5707 10.8242 18.6957 10.7148 18.9769C10.319 19.9613 9.46484 22.0707 9.21484 22.6332C9.16768 22.7393 9.1173 22.8622 9.06324 22.994C8.75915 23.7357 8.33837 24.762 7.71484 24.6957C6.98047 24.6176 7.05859 23.8363 7.33984 22.9613C7.62109 22.0863 8.46484 20.0707 9.41797 18.8363C9.74609 18.1176 10.4336 16.5988 10.5586 16.2738C10.6519 16.0313 11.2799 14.4798 11.8373 13.1026C12.2136 12.1731 12.5577 11.323 12.6836 11.0082C12.6924 10.9863 12.7027 10.9604 12.7146 10.9308C13.1258 9.90417 15.3464 4.36057 15.5742 2.49255C14.3242 4.10714 11.4773 7.91755 10.0898 10.2426C8.35547 13.1488 6.32422 16.5863 4.51172 20.9144C2.69922 25.2426 1.5853 28.3695 1.2622 29.727Z" fill="black"/>
<path fill-rule="evenodd" clip-rule="evenodd" d="M26.1363 16.3831C26.6863 16.3206 28.4384 15.8779 29.2456 15.6644C29.1026 16.1229 28.7666 17.1599 28.5664 17.6402C28.3163 18.2405 27.0822 22.3931 26.782 23.6106C26.7142 23.8853 26.604 24.313 26.4727 24.8223C26.0223 26.5695 25.3243 29.277 25.2456 30.0646C25.144 31.0819 25.3473 31.3988 25.7475 31.1319C26.0677 30.9185 26.3257 29.9201 26.4146 29.4475C26.2812 29.4342 26.1735 29.5754 26.1363 29.6477C26.4917 27.8299 27.7654 23.7773 28.3491 22.1597C28.8161 20.8655 30.0002 17.0509 30.5338 15.3054C30.774 15.252 32.2959 14.8495 33.0268 14.655C32.7348 15.1768 30.5505 21.6176 30.4338 23.3271C30.426 23.4411 30.4179 23.5555 30.4098 23.67C30.2969 25.2718 30.1831 26.8843 30.8393 27.5551C31.5425 28.2738 32.3081 27.5551 33.0268 26.4301C33.6018 25.5301 34.7664 22.3155 35.2768 20.8207C35.48 20.404 36.1393 19.6051 37.1518 19.7426C37.6972 19.8166 38.2774 20.204 38.9337 20.6422C39.8004 21.221 40.7997 21.8883 42.0268 22.0394C44.1831 22.3051 46.4018 21.9457 46.9018 21.6176C47.4018 21.2894 47.0893 21.0082 46.5737 21.0551C46.0581 21.1019 43.3706 21.1801 41.605 20.7269C40.2672 20.3836 39.5393 19.7891 38.9118 19.2765C38.711 19.1126 38.5206 18.957 38.3237 18.8207C37.6737 18.3707 36.5425 18.4874 36.0581 18.6019C36.6987 17.0551 36.9643 15.0863 36.9175 14.8676C36.8706 14.6488 36.5737 13.8519 35.2768 15.0863C34.2393 16.0738 33.1987 18.1644 32.8081 19.0863C33.1456 17.8613 34.0425 15.3571 34.4487 14.2582C35.2404 14.0603 36.93 13.6332 37.355 13.5082C37.8862 13.3519 42.4956 12.2426 42.9643 12.1332C43.4331 12.0238 44.6206 11.6488 44.3862 11.4769C44.1518 11.3051 42.605 11.4769 41.0112 11.7582C39.7362 11.9832 36.3862 12.7582 34.8706 13.1176C34.9183 12.9554 35.1057 12.4788 35.2659 12.0717C35.368 11.812 35.4591 11.5804 35.4956 11.4769C35.5893 11.2113 36.7612 8.44569 37.0425 7.83631C37.3237 7.22694 38.3081 5.22694 38.98 3.91444C39.5175 2.86443 40.2873 1.71652 40.605 1.27381C41.294 1.28759 41.2295 1.13122 41.1832 1.01908C41.177 1.00409 41.1711 0.989832 41.1675 0.976942C41.1362 0.867567 40.6206 0.492567 39.9956 0.976942C39.3706 1.46132 38.5112 3.05507 38.3081 3.46132C38.232 3.6134 37.9742 4.12682 37.6527 4.7671L37.6416 4.78921C37.1056 5.85665 36.3979 7.26611 36.0581 7.94569C35.6206 8.82069 34.1883 12.0186 33.5268 13.5082L30.9487 14.1332C31.24 13.1501 31.7275 11.6262 32.1795 10.2132L32.1799 10.2117C32.5036 9.19974 32.8091 8.24478 33.0112 7.58632C33.3987 6.32382 34.2977 3.66444 34.6987 2.49257C34.7352 2.60194 34.8425 2.81444 34.98 2.78944C35.1518 2.75819 35.1206 2.33627 35.0581 1.96127C34.9956 1.58627 34.4487 1.39877 34.0268 2.18002C33.605 2.96127 32.5581 5.75815 32.3862 6.27377C32.2487 6.68627 30.4331 11.9665 29.5425 14.555C29.3237 14.6331 26.9018 15.3363 26.2925 15.4769C25.6831 15.6175 25.3081 15.7425 25.2456 16.0394C25.1831 16.3363 25.4488 16.4613 26.1363 16.3831ZM35.7876 16.0725C34.9471 17.1398 33.9809 19.4413 33.6029 20.4586C33.763 20.2451 34.359 19.7804 34.6369 19.5747C34.7092 19.3134 34.8837 18.7075 35.0038 18.374C35.1239 18.0404 35.5764 16.7007 35.7876 16.0725ZM31.5348 26.4957C31.4682 24.6546 31.9296 22.2152 32.1686 21.2257C32.3686 22.3997 33.2638 22.2597 33.6863 22.0429C32.699 24.7646 31.8406 26.1455 31.5348 26.4957Z" fill="black"/>
</svg>
